<svg xmlns="http://www.w3.org/2000/svg" viewBox="0 0 600.99 164.88"><defs><style>.cls-1{fill:#fff;}.cls-2{fill:#bcbec0;}</style></defs><title>logo_1</title><g id="Text"><path class="cls-1" d="M66.3,80.78H34.55L25.74,99.42H0L52.65,0h22L93,99.42H68.69Zm-23-18.44H63.91L59.54,28.06Z"/><path class="cls-1" d="M135.24,19.87l7.24,50.53,24.79-50.53h30.31L183.72,99.42H161.05L163.44,86,172.59,46l-27,53.4H130.94L122,43.5,116.6,88.29l-1.91,11.13H92.09l13.79-79.55Z"/><path class="cls-1" d="M239.34,85.49H211.89l-7,13.93H181.51l43.7-79.55h21.58l16.66,79.55H241.73ZM219.68,69.78h17l-3.89-24.65v-1.7l-.68,1.77Z"/><path class="cls-1" d="M292.85,81.53l36.33.14L326.1,99.42h-66l1.85-12L267.11,82v-.35L307.6,37.76l-37.35-.14,3.14-17.75H339.9l-2,11.75Z"/><path class="cls-1" d="M351.27,99.42H328.81L342.6,19.87h22.46Z"/><path class="cls-1" d="M428.06,99.42H406.21l-18.3-47.18-8.19,47.18H357.19L371,19.87h21.85L411.2,67.05l8.19-47.18h22.47Z"/><path class="cls-1" d="M505.06,90.07q-5.06,5.12-14.31,7.85a70.3,70.3,0,0,1-21.13,2.52q-10.65-.14-18.27-5a27.9,27.9,0,0,1-11-13.62q-3.42-8.72-2.26-20l.41-3.42q2.19-18,13.59-29t27.79-10.69q14.89.27,23,7.59t9,21.05l-21.31-.07c-.31-3.63-1.29-6.3-2.93-8s-4.35-2.65-8.13-2.79q-8.54-.27-13.69,7.47t-5.56,23v2.25q0,6.27,3,9.78c2,2.35,5,3.58,9.08,3.72a25.2,25.2,0,0,0,10.45-1.92l2.12-9.89H471.53l2.73-15.3H510Z"/><path class="cls-2" d="M295.62,161.63a7.85,7.85,0,0,1-4.07-7,7.27,7.27,0,0,1,2.41-5.74,9.73,9.73,0,0,1,6.66-2.12,9.3,9.3,0,0,1,6.2,1.94,6.4,6.4,0,0,1,2.32,5.18,5,5,0,0,1-.1,1.21,9.39,9.39,0,0,0-3-2,8.77,8.77,0,0,0-3.47-.74,4.49,4.49,0,0,0-2.64.69,2.22,2.22,0,0,0-1,1.9,2.84,2.84,0,0,0,2,2.64,14.85,14.85,0,0,0,5.74.88q6.86,0,10.88-3a9.49,9.49,0,0,0,4-8.06q0-9.06-11.75-9.44a11.54,11.54,0,0,1,7.77-2.68,11.15,11.15,0,0,1,8.38,3.28c2.13,2.2,3.19,5.17,3.19,8.94a14.43,14.43,0,0,1-6,12.17q-6,4.49-16.15,4.49Q299.69,164.13,295.62,161.63Zm6.16-19.3a11.71,11.71,0,0,1-3.29-8.65,14.16,14.16,0,0,1,2.18-7.83,14.59,14.59,0,0,1,5.92-5.23,18.51,18.51,0,0,1,8.29-1.85,16.45,16.45,0,0,1,9.67,2.83,15.12,15.12,0,0,1,5.69,7.54,20.37,20.37,0,0,0-12.77-4.44q-5.37,0-8.38,2.31a7.53,7.53,0,0,0-3,6.3,8.29,8.29,0,0,0,3.2,6.75,15,15,0,0,0,8.65,3,11.2,11.2,0,0,1-7.5,2.6A11.69,11.69,0,0,1,301.78,142.33Z"/><path class="cls-2" d="M347.36,155.43a3.32,3.32,0,0,0-.18,1c0,1,.68,1.48,2,1.48q3.24,0,8.43-3.42a39.45,39.45,0,0,1-7.59,6.76,12.8,12.8,0,0,1-6.76,2.5,4.45,4.45,0,0,1-3.15-1.11,4,4,0,0,1-1.2-3.06,6,6,0,0,1,.28-1.76l8-32.21H339.5L341,119.7h7.68l1.66-6.57a4.49,4.49,0,0,1,4.72-3.61q3.06,0,3.06,2.4a7.51,7.51,0,0,1-.19,1.21l-1.66,6.57H365l-1.48,5.92h-8.7Z"/><path class="cls-2" d="M372,161.16a17.27,17.27,0,0,1-6.38-7.86,22.77,22.77,0,0,1-.93-6.48,25.07,25.07,0,0,1,5.09-15,35.06,35.06,0,0,1,13.7-11.06,32.55,32.55,0,0,0-8.1,11.61,38.55,38.55,0,0,0-2.92,15.14,49.06,49.06,0,0,0,.47,6.57q3.13,4,9.44,4a15.75,15.75,0,0,0,10.41-3.66A22.13,22.13,0,0,0,399.38,144a47.16,47.16,0,0,0,2-15.79,6.8,6.8,0,0,0-5.92-3.33,6,6,0,0,0-4.81,2.22,8.8,8.8,0,0,0-1.85,5.83,11.53,11.53,0,0,0,1.38,5.6,13.18,13.18,0,0,0,4,4.4,16.56,16.56,0,0,1-9.3-3.89,10.17,10.17,0,0,1-3.47-7.86,11.32,11.32,0,0,1,1.85-6.34,12.23,12.23,0,0,1,5-4.35,14.72,14.72,0,0,1,6.61-1.53,13.44,13.44,0,0,1,8.24,2.68,16.88,16.88,0,0,1,5.55,7.59,35.3,35.3,0,0,1,.47,5.83,32,32,0,0,1-3.52,15.23,25.75,25.75,0,0,1-9.53,10.23,25.33,25.33,0,0,1-13.24,3.61A18.77,18.77,0,0,1,372,161.16Z"/><path class="cls-2" d="M417,161.44a7.62,7.62,0,0,1,.19-1.2l8.24-32.77a2.44,2.44,0,0,0,.09-.74,1.66,1.66,0,0,0-.51-1.29,1.91,1.91,0,0,0-1.34-.46q-3.24,0-8.43,3.42a39.45,39.45,0,0,1,7.59-6.76,12.77,12.77,0,0,1,6.76-2.5,4.47,4.47,0,0,1,3.15,1.11,4,4,0,0,1,1.2,3.06,6.68,6.68,0,0,1-.28,1.76l-1.39,5.37a23.81,23.81,0,0,1,6.58-8.52,13,13,0,0,1,8.14-3.15,8.4,8.4,0,0,1,5.69,2,6.83,6.83,0,0,1,2.36,5.46,8,8,0,0,1-2.22,5.74,7.07,7.07,0,0,1-5.27,2.31,6.93,6.93,0,0,1-3.89-1.15,7.47,7.47,0,0,1-2.68-3.1,8.54,8.54,0,0,0,2,.27,3.64,3.64,0,0,0,2.45-.74,2.61,2.61,0,0,0,.88-2.13,2.5,2.5,0,0,0-.6-1.76,2.1,2.1,0,0,0-1.62-.64q-2.77,0-6.62,4.72A80.1,80.1,0,0,0,429.18,143l-4.35,17.22c-.55,2.34-2.13,3.52-4.72,3.52C418,163.76,417,163,417,161.44Z"/><path class="cls-2" d="M462.59,161.07A17.76,17.76,0,0,1,456,153.3a24.45,24.45,0,0,1-.93-7,31.2,31.2,0,0,1,3.24-14.57,22.89,22.89,0,0,1,9.21-9.63,27.82,27.82,0,0,1,13.93-3.38,19.75,19.75,0,0,1,8.84,2,14,14,0,0,1,6.06,5.42,27.78,27.78,0,0,1,1.11,8.33,13.22,13.22,0,0,1-4.07,10.18q-4.07,3.8-11,3.79a19.45,19.45,0,0,1-9.86-2.36,11.18,11.18,0,0,1-5.41-6.34,14.94,14.94,0,0,0,5.55,2.18,37.27,37.27,0,0,0,7.87.79,9.67,9.67,0,0,0,6.94-2.46,8.54,8.54,0,0,0,2.59-6.52,21,21,0,0,0-.74-5.56,12,12,0,0,0-3.56-2.4,10.27,10.27,0,0,0-4.21-.93,16.5,16.5,0,0,0-13.66,6.39q-5,6.39-5,17.31a38.67,38.67,0,0,0,.46,6c2.65,2.29,6.3,3.43,10.92,3.43a28.58,28.58,0,0,0,10.88-2.13,22.63,22.63,0,0,0,8.47-5.74,33,33,0,0,1-9.67,10.18,20.38,20.38,0,0,1-11.34,3.8A17.5,17.5,0,0,1,462.59,161.07Z"/></g><g id="Brush"><path class="cls-2" d="M531.13,142.18l14.18,16.18a34.49,34.49,0,0,0,4.79-11.27,3,3,0,0,1,.07-.32l-15-17.09C533.43,135.08,532,139.41,531.13,142.18Z"/><path class="cls-1" d="M541.69,107.9a16.26,16.26,0,0,1-.53,2.66c-1,3.6-2.1,7.06-3.12,10.31l13.71,15.65c.62-5.15,1.16-10.8,1.73-15.16Z"/><path class="cls-1" d="M595.5,52.56,574.59,28.69c-.91-.24-1.84-.46-2.78-.68-6-1.37-11.4-2.6-16-3.62l34.78,39.7Z"/><path class="cls-2" d="M556.17,112.37a35.91,35.91,0,0,1,7.82-8.2l-31.53-36c-1.26,4.24-2.7,9.27-3.73,12.88Z"/><path class="cls-1" d="M539.41,163.68l-9.8-11.18c-.2,6.39,1,13,6.06,12.33A12.17,12.17,0,0,0,539.41,163.68Z"/><path class="cls-2" d="M543,21.82a19.73,19.73,0,0,0-4-.35c.31,1.65.11,6.52-.41,12.47L583,84.61c1.37-4.72,2.4-8.3,2.4-8.3l1.75-4.11Z"/><path class="cls-2" d="M599,44.44l2-4.78a81.77,81.77,0,0,0-11.32-5.81Z"/><path class="cls-1" d="M537.46,44.68c-.67,5.35-1.47,10.59-2.3,14.52l36.06,41.16a20.78,20.78,0,0,1,7.51-1l1.64-5.7Z"/></g></svg>